<svg width="100" height="100" viewBox="0 0 100 100" fill="none" xmlns="http://www.w3.org/2000/svg">
<g filter="url(#filter0_d_3359_1619)">
<rect x="18" y="18" width="64" height="64" rx="12" fill="url(#paint0_linear_3359_1619)"/>
<path d="M55.0667 58.5583C54.64 58.5583 54.48 58.345 54.5333 57.9717L57.36 42.0283C57.4133 41.655 57.6267 41.4417 58.0533 41.4417H64.0267C68.0267 41.4417 70 42.6683 70 45.175C70 46.1866 69.7333 47.0933 69.2 47.8417C68.6667 48.6417 67.92 49.175 66.96 49.4933C67.6 49.6533 68.1867 50.0267 68.56 50.6133C68.9867 51.1467 69.2 51.8933 69.2 52.7466C69.2 54.7717 68.5067 56.2133 67.12 57.1716C65.7333 58.0783 63.8667 58.5583 61.5733 58.5583H55.0667ZM61.68 55.785C64.4533 55.785 65.84 54.7722 65.84 52.7466C65.84 52.1067 65.5733 51.68 65.0933 51.36C64.6133 51.04 63.76 50.9333 62.64 50.9333H59.1733L58.32 55.7333H61.68V55.785ZM62.96 48.48C65.4133 48.48 66.5867 47.5733 66.5867 45.7083C66.5867 45.1217 66.3733 44.7483 65.8933 44.4817C65.4133 44.215 64.6667 44.1083 63.6533 44.1083H60.3467L59.5467 48.48H62.96ZM51.4933 48.0533C51.4925 47.7848 51.3854 47.5276 51.1956 47.3378C51.0057 47.1479 50.7485 47.0409 50.48 47.04H31.0133C30.7446 47.04 30.4868 47.1467 30.2968 47.3368C30.1068 47.5268 30 47.7846 30 48.0533C30 48.3221 30.1068 48.5798 30.2968 48.7699C30.4868 48.9599 30.7446 49.0666 31.0133 49.0666H50.4267C51.0133 49.0666 51.4933 48.64 51.4933 48.0533ZM53.7333 44.4283C53.7325 44.1598 53.6254 43.9026 53.4356 43.7128C53.2457 43.5229 52.9885 43.4159 52.72 43.415H40.7733C40.6403 43.415 40.5085 43.4412 40.3855 43.4921C40.2626 43.543 40.1509 43.6177 40.0568 43.7118C39.9627 43.8059 39.8881 43.9176 39.8371 44.0405C39.7862 44.1635 39.76 44.2952 39.76 44.4283C39.76 44.5614 39.7862 44.6932 39.8371 44.8161C39.8881 44.939 39.9627 45.0508 40.0568 45.1449C40.1509 45.2389 40.2626 45.3136 40.3855 45.3645C40.5085 45.4154 40.6403 45.4417 40.7733 45.4417H52.72C53.2533 45.4417 53.7333 45.015 53.7333 44.4283ZM49.6267 55.5183C49.6258 55.2498 49.5187 54.9926 49.3289 54.8028C49.1391 54.6129 48.8818 54.5059 48.6133 54.505H43.76C43.4912 54.505 43.2335 54.6117 43.0435 54.8018C42.8534 54.9918 42.7467 55.2496 42.7467 55.5183C42.7467 55.7871 42.8534 56.0448 43.0435 56.2349C43.2335 56.4249 43.4912 56.5316 43.76 56.5316H48.6133C49.1467 56.5316 49.6267 56.105 49.6267 55.5183ZM48.1867 51.7333C48.1858 51.4648 48.0787 51.2076 47.8889 51.0178C47.6991 50.8279 47.4418 50.7209 47.1733 50.72H35.3333C35.2003 50.72 35.0685 50.7462 34.9455 50.7971C34.8226 50.848 34.7109 50.9227 34.6168 51.0168C34.5227 51.1109 34.4481 51.2226 34.3971 51.3455C34.3462 51.4685 34.32 51.6002 34.32 51.7333C34.32 51.8664 34.3462 51.9982 34.3971 52.1211C34.4481 52.244 34.5227 52.3558 34.6168 52.4499C34.7109 52.5439 34.8226 52.6186 34.9455 52.6695C35.0685 52.7204 35.2003 52.7466 35.3333 52.7466H47.1733C47.4392 52.7375 47.6917 52.6278 47.8797 52.4397C48.0678 52.2516 48.1775 51.9992 48.1867 51.7333Z" fill="white"/>
</g>
<defs>
<filter id="filter0_d_3359_1619" x="0" y="0" width="100" height="100" filterUnits="userSpaceOnUse" color-interpolation-filters="sRGB">
<feFlood flood-opacity="0" result="BackgroundImageFix"/>
<feColorMatrix in="SourceAlpha" type="matrix" values="0 0 0 0 0 0 0 0 0 0 0 0 0 0 0 0 0 0 127 0" result="hardAlpha"/>
<feMorphology radius="2" operator="dilate" in="SourceAlpha" result="effect1_dropShadow_3359_1619"/>
<feOffset/>
<feGaussianBlur stdDeviation="8"/>
<feComposite in2="hardAlpha" operator="out"/>
<feColorMatrix type="matrix" values="0 0 0 0 1 0 0 0 0 0.452731 0 0 0 0 0.562185 0 0 0 1 0"/>
<feBlend mode="normal" in2="BackgroundImageFix" result="effect1_dropShadow_3359_1619"/>
<feBlend mode="normal" in="SourceGraphic" in2="effect1_dropShadow_3359_1619" result="shape"/>
</filter>
<linearGradient id="paint0_linear_3359_1619" x1="50" y1="82" x2="50" y2="18" gradientUnits="userSpaceOnUse">
<stop stop-color="#FF0047"/>
<stop offset="1" stop-color="#FF417B"/>
</linearGradient>
</defs>
</svg>
